<?xml version="1.0" encoding="UTF-8"?>
<svg width="250px" height="250px" viewBox="0 0 24 24" version="1.1" xmlns="http://www.w3.org/2000/svg" xmlns:xlink="http://www.w3.org/1999/xlink">
    <title>Robot-V2</title>
    <g id="Page-1" stroke="none" stroke-width="1" fill="none" fill-rule="evenodd">
        <g id="Robot-V2">
            <rect id="Rectangle" fill="#0066FF" x="0" y="0" width="24" height="24"></rect>
            <path d="M12,1 C7.029,1 3,5.029 3,10 L3,14 C3,18.971 7.029,23 12,23 C16.971,23 21,18.971 21,14 L21,10 C21,5.029 16.971,1 12,1 Z M12,3 C16.418,3 20,6.582 20,11 L20,13 C20,17.418 16.418,21 12,21 C7.582,21 4,17.418 4,13 L4,11 C4,6.582 7.582,3 12,3 Z M12,5 C9.791,5 8,6.791 8,9 C8,11.209 9.791,13 12,13 C14.209,13 16,11.209 16,9 C16,6.791 14.209,5 12,5 Z M12,7 C13.105,7 14,7.895 14,9 C14,10.105 13.105,11 12,11 C10.895,11 10,10.105 10,9 C10,7.895 10.895,7 12,7 Z M12,15 C9.791,15 8,16.791 8,19 C8,21.209 9.791,23 12,23 C14.209,23 16,21.209 16,19 C16,16.791 14.209,15 12,15 Z M12,17 C13.105,17 14,17.895 14,19 C14,20.105 13.105,21 12,21 C10.895,21 10,20.105 10,19 C10,17.895 10.895,17 12,17 Z" id="Shape" fill="#FFFFFF"></path>
        </g>
    </g>
</svg>